<!DOCTYPE svg PUBLIC "-//W3C//DTD SVG 1.1//EN" "http://www.w3.org/Graphics/SVG/1.1/DTD/svg11.dtd">
<!-- Uploaded to: SVG Repo, www.svgrepo.com, Transformed by: SVG Repo Mixer Tools -->
<svg fill="#C59D30" height="256px" width="256px" version="1.1" id="Layer_1" xmlns="http://www.w3.org/2000/svg" xmlns:xlink="http://www.w3.org/1999/xlink" viewBox="0 0 512.00 512.00" xml:space="preserve" stroke="#C59D30" stroke-width="0.00512">
<g id="SVGRepo_bgCarrier" stroke-width="0"/>
<g id="SVGRepo_tracerCarrier" stroke-linecap="round" stroke-linejoin="round" stroke="#CCCCCC" stroke-width="2.048"/>
<g id="SVGRepo_iconCarrier"> <g> <g> <path d="M503.658,244.435c-3.735-5.178-92.789-126.816-207.129-126.816c-87.646,0-160.429,71.469-191.323,107.172 C84.499,202.942,45.909,170.336,0,170.336v170.418c45.606,0,83.991-32.179,104.797-54.024 c30.651,35.539,103.69,107.649,191.732,107.649c114.34,0,203.394-121.637,207.129-126.816L512,256L503.658,244.435z M362.424,275.769c-10.917,0-19.769-8.851-19.769-19.769s8.851-19.769,19.769-19.769c10.918,0,19.769,8.851,19.769,19.769 S373.342,275.769,362.424,275.769z"/> </g> </g> </g>
</svg>