<svg version="1.2" xmlns="http://www.w3.org/2000/svg" viewBox="0 0 800 800" width="800" height="800">
	<style>
		.s0 { fill: #a33b20;stroke: #c95d43;stroke-width: 6.4 } 
	</style>
	<g id="SVGRepo_bgCarrier">
	</g>
	<g id="SVGRepo_tracerCarrier">
	</g>
	<g id="SVGRepo_iconCarrier">
		<path class="s0" d="m554.32 463.03l15.18-15.1-35.26-35.45-15.18 15.09zm15.19-15.09c12.8-12.73 33.4-15.88 50.98-6.33l23.88-43.92c-36.12-19.64-80.94-14.22-110.12 14.79zm50.99-6.32l63.68 34.62 23.88-43.93-63.68-34.62zm63.68 34.62c27.26 14.82 31.51 49.67 12.26 68.81l35.25 35.45c44.68-44.42 30.9-118.54-23.63-148.19zm12.26 68.81l-47.35 47.08 35.25 35.46 47.35-47.08zm-47.35 47.08c-9.16 9.11-18.98 14.24-28.85 15.16l4.64 49.78c24.48-2.28 44.55-14.65 59.46-29.48zm-28.85 15.16c-48.33 4.5-173.37 0.49-308.75-134.13l-35.26 35.46c147.74 146.9 288.35 154.07 348.65 148.45zm-308.75-134.12c-129.05-128.32-150.42-236.24-153.08-283.06l-49.92 2.84c3.35 58.93 29.81 178.53 167.74 315.67zm-153.08-283.05c-0.65-11.54 4.64-23.59 15.63-34.52l-35.25-35.46c-17.91 17.81-31.99 43.02-30.3 72.82zm198.93 77.04l9.56-9.51-35.25-35.45-9.56 9.5zm17.17-130.68l-42.04-56.14-40.02 29.96 42.03 56.15zm-42.03-56.15c-33.98-45.38-100.79-52.56-141.37-12.22l35.25 35.46c17.73-17.62 49.2-15.83 66.09 6.73zm-141.37-12.22l-52.32 52.02 35.26 35.46 52.32-52.03zm-34.69 69.75l-17.63-17.72zm183.29 111.56c-17.62-17.72-17.65-17.7-17.67-17.68q-0.02 0.02-0.05 0.05-0.05 0.05-0.1 0.1-0.1 0.11-0.21 0.22-0.22 0.22-0.46 0.49-0.48 0.52-1.05 1.19-1.15 1.35-2.51 3.34c-1.81 2.67-3.77 6.19-5.44 10.62-3.4 9.03-5.23 20.94-2.94 35.69 4.47 28.84 24.34 66.94 75.22 117.54l35.25-35.46c-47.61-47.35-58.96-76.16-61.06-89.74-1.01-6.47 0.03-9.65 0.32-10.4 0.17-0.47 0.26-0.52 0.04-0.2q-0.15 0.23-0.56 0.73-0.2 0.24-0.49 0.56-0.14 0.15-0.31 0.32-0.08 0.09-0.17 0.18-0.04 0.04-0.09 0.09-0.02 0.03-0.04 0.05c-0.03 0.02-0.05 0.04-17.68-17.69zm44.79 151.56c50.9 50.61 89.18 70.3 118.07 74.74 14.76 2.26 26.66 0.45 35.69-2.91 4.43-1.65 7.96-3.59 10.62-5.38q2-1.36 3.35-2.49 0.68-0.57 1.21-1.05 0.26-0.24 0.49-0.45 0.11-0.11 0.21-0.21 0.05-0.05 0.1-0.1 0.04-0.03 0.05-0.05c0.03-0.02 0.05-0.04-17.58-17.77-17.62-17.73-17.6-17.75-17.58-17.78q0.02-0.01 0.05-0.04 0.04-0.05 0.09-0.09 0.09-0.09 0.18-0.17 0.17-0.17 0.33-0.31 0.31-0.28 0.56-0.48 0.49-0.41 0.72-0.55c0.31-0.21 0.24-0.12-0.25 0.07-0.82 0.3-4.09 1.34-10.66 0.33-13.78-2.11-42.79-13.44-90.4-60.77zm247.95 18.68l-11.94 21.96zm81.63 143.12l17.63 17.73zm-91.51 69.4l2.32 24.89zm-328.7-141.28l17.63-17.73zm73.03-233.25c32.81-32.63 35.25-84.24 7.61-121.17l-40.03 29.96c13.45 17.97 11.45 41.55-2.84 55.76zm-12.4-106.19l20.01-14.99zm-145.75-65.62l17.62 17.73zm193.39 297.41l17.63-17.72zm134.58 62.06l-17.62-17.73zm-224.25-350l-20.01 14.98zm-179.02 96.22l-24.96 1.42zm533.28 418.33l-17.63-17.73zm-317.45-369.93l17.62 17.72zm346.86 214.36l-11.94 21.96zm-144.23-24.06l17.62 17.73z"/>
	</g>
</svg>