<!DOCTYPE svg PUBLIC "-//W3C//DTD SVG 1.1//EN" "http://www.w3.org/Graphics/SVG/1.1/DTD/svg11.dtd">
<!-- Uploaded to: SVG Repo, www.svgrepo.com, Transformed by: SVG Repo Mixer Tools -->
<svg fill="#C59D30" height="194px" width="194px" version="1.1" id="Capa_1" xmlns="http://www.w3.org/2000/svg" xmlns:xlink="http://www.w3.org/1999/xlink" viewBox="0 0 612 612" xml:space="preserve" stroke="#C59D30">
<g id="SVGRepo_bgCarrier" stroke-width="0"/>
<g id="SVGRepo_tracerCarrier" stroke-linecap="round" stroke-linejoin="round"/>
<g id="SVGRepo_iconCarrier"> <g> <path d="M439.924,318.498c32.54-48.312,51.204-112.012,51.204-174.768c0-40.793-7.795-96.945-25.209-130.433 C461.67,5.125,453.228,0,444.019,0h-276.04c-9.208,0-17.651,5.125-21.901,13.296c-17.412,33.487-25.207,89.639-25.207,130.435 c0,62.756,18.663,126.458,51.203,174.768c27.83,41.319,62.886,68.154,101.013,77.968v149.708h-44.434 c-18.177,0-32.913,14.736-32.913,32.913S210.476,612,228.653,612h154.692c18.177,0,32.913-14.736,32.913-32.913 c0-18.177-14.736-32.913-32.913-32.913h-44.432V396.466C377.037,386.654,412.094,359.815,439.924,318.498z M170.633,157.571 c-0.232-4.613-0.392-9.228-0.392-13.843c0-32.923,5.765-70.242,14.084-94.36h243.347c8.319,24.118,14.084,61.438,14.084,94.36 c0,4.615-0.16,9.23-0.392,13.843H170.633z"/> </g> </g>
</svg>