<!DOCTYPE svg PUBLIC "-//W3C//DTD SVG 1.1//EN" "http://www.w3.org/Graphics/SVG/1.1/DTD/svg11.dtd">
<!-- Uploaded to: SVG Repo, www.svgrepo.com, Transformed by: SVG Repo Mixer Tools -->
<svg fill="#C59D30" height="256px" width="256px" version="1.1" id="Icons" xmlns="http://www.w3.org/2000/svg" xmlns:xlink="http://www.w3.org/1999/xlink" viewBox="0 0 32.00 32.00" xml:space="preserve" stroke="#C59D30" stroke-width="0.00032">
<g id="SVGRepo_bgCarrier" stroke-width="0"/>
<g id="SVGRepo_tracerCarrier" stroke-linecap="round" stroke-linejoin="round"/>
<g id="SVGRepo_iconCarrier"> <path d="M21.3,17.8c1.8-1.6,2.7-3.9,2.6-6.3c0-0.1,0-0.3,0-0.4c0,0,0,0,0,0c-0.1-0.8-0.2-1.7-0.5-2.5l-1.9-4.8 c-0.1-0.4-0.5-0.6-0.9-0.6h-9.3c-0.4,0-0.8,0.3-0.9,0.6L8.6,8.6C8.2,9.5,8,10.5,8,11.4c0,0,0,0,0,0c0,0.1,0,0.2,0,0.3 c0,2.3,0.9,4.5,2.6,6c1.3,1.2,2.8,1.8,4.3,2v4.1c0,2-1.3,3.7-3.2,4.2c-0.5,0.1-0.8,0.6-0.8,1.1c0.1,0.5,0.5,0.9,1,0.9h8c0,0,0,0,0,0 c0,0,0,0,0,0c0.1,0,0.2,0,0.4-0.1c0,0,0.1,0,0.1-0.1c0.1,0,0.1-0.1,0.2-0.1c0,0,0.1-0.1,0.1-0.1c0-0.1,0.1-0.1,0.1-0.2 c0,0,0-0.1,0.1-0.1c0,0,0,0,0-0.1c0,0,0-0.1,0-0.1c0,0,0-0.1,0-0.1c0,0,0,0,0-0.1c0-0.1,0-0.1,0-0.2c0-0.1,0-0.1-0.1-0.2 c0-0.1-0.1-0.1-0.1-0.2c0-0.1-0.1-0.1-0.1-0.1c0,0-0.1-0.1-0.2-0.1c-0.1,0-0.1-0.1-0.2-0.1c0,0,0,0-0.1,0c-1.9-0.5-3.2-2.2-3.2-4.2 v-4.1C18.6,19.6,20.1,18.9,21.3,17.8z M12.1,5.1h7.9l1.6,4.2c0.1,0.4,0.2,0.8,0.3,1.2C19.7,10.8,17.4,11,15,11 c-1.7,0-3.3-0.1-4.9-0.3c0.1-0.5,0.2-0.9,0.3-1.4L12.1,5.1z"/> </g>
</svg>